<svg width="290" height="210" viewBox="0 0 290 210" fill="none" xmlns="http://www.w3.org/2000/svg">
<rect width="290" height="210" fill="url(#paint0_linear_624_849)"/>
<path d="M80.595 129.304C77.2897 129.304 74.431 128.522 72.019 126.959C69.607 125.351 67.7533 123.185 66.458 120.46C65.1627 117.735 64.515 114.72 64.515 111.415C64.515 108.065 65.2297 105.05 66.659 102.37C68.0883 99.6453 70.143 97.5013 72.823 95.938C75.503 94.33 78.719 93.526 82.471 93.526C86.089 93.526 89.1933 94.3077 91.784 95.871C94.3747 97.4343 96.3623 99.556 97.747 102.236C99.1763 104.916 99.891 107.909 99.891 111.214V128.5H93.66V121.532H93.526C92.856 122.827 91.9403 124.078 90.779 125.284C89.6623 126.445 88.2553 127.406 86.558 128.165C84.8607 128.924 82.873 129.304 80.595 129.304ZM82.203 124.011C84.4363 124.011 86.4017 123.475 88.099 122.403C89.841 121.286 91.181 119.768 92.119 117.847C93.1017 115.882 93.593 113.693 93.593 111.281C93.593 108.914 93.124 106.792 92.186 104.916C91.2927 103.04 89.9973 101.566 88.3 100.494C86.6027 99.3773 84.615 98.819 82.337 98.819C79.925 98.819 77.848 99.3773 76.106 100.494C74.4087 101.611 73.091 103.129 72.153 105.05C71.2597 106.926 70.813 109.07 70.813 111.482C70.813 113.805 71.2597 115.926 72.153 117.847C73.0463 119.723 74.3417 121.219 76.039 122.336C77.7363 123.453 79.791 124.011 82.203 124.011ZM109.705 128.5V79.59H115.869V128.5H109.705ZM141.683 129.304C138.601 129.304 135.832 128.679 133.375 127.428C130.963 126.133 129.065 124.346 127.68 122.068C126.34 119.79 125.67 117.132 125.67 114.095V94.33H131.901V114.028C131.901 116.083 132.348 117.869 133.241 119.388C134.135 120.862 135.318 122.001 136.792 122.805C138.311 123.609 139.919 124.011 141.616 124.011C143.358 124.011 144.966 123.609 146.44 122.805C147.959 122.001 149.165 120.862 150.058 119.388C150.996 117.869 151.465 116.083 151.465 114.028V94.33H157.696V114.095C157.696 117.132 157.004 119.79 155.619 122.068C154.235 124.346 152.336 126.133 149.924 127.428C147.512 128.679 144.765 129.304 141.683 129.304ZM167.279 128.5V104.045C167.279 101.008 168.128 98.6403 169.825 96.943C171.567 95.201 173.957 94.33 176.994 94.33H184.029V99.623H178.133C176.659 99.623 175.498 100.047 174.649 100.896C173.845 101.745 173.443 102.928 173.443 104.447V128.5H167.279ZM203.93 129.304C200.625 129.304 197.766 128.522 195.354 126.959C192.942 125.351 191.088 123.185 189.793 120.46C188.498 117.735 187.85 114.72 187.85 111.415C187.85 108.065 188.565 105.05 189.994 102.37C191.423 99.6453 193.478 97.5013 196.158 95.938C198.838 94.33 202.054 93.526 205.806 93.526C209.424 93.526 212.528 94.3077 215.119 95.871C217.71 97.4343 219.697 99.556 221.082 102.236C222.511 104.916 223.226 107.909 223.226 111.214V128.5H216.995V121.532H216.861C216.191 122.827 215.275 124.078 214.114 125.284C212.997 126.445 211.59 127.406 209.893 128.165C208.196 128.924 206.208 129.304 203.93 129.304ZM205.538 124.011C207.771 124.011 209.737 123.475 211.434 122.403C213.176 121.286 214.516 119.768 215.454 117.847C216.437 115.882 216.928 113.693 216.928 111.281C216.928 108.914 216.459 106.792 215.521 104.916C214.628 103.04 213.332 101.566 211.635 100.494C209.938 99.3773 207.95 98.819 205.672 98.819C203.26 98.819 201.183 99.3773 199.441 100.494C197.744 101.611 196.426 103.129 195.488 105.05C194.595 106.926 194.148 109.07 194.148 111.482C194.148 113.805 194.595 115.926 195.488 117.847C196.381 119.723 197.677 121.219 199.374 122.336C201.071 123.453 203.126 124.011 205.538 124.011Z" fill="#CFE2FF"/>
<defs>
<linearGradient id="paint0_linear_624_849" x1="288.875" y1="-1.44195e-06" x2="-22.5757" y2="165.36" gradientUnits="userSpaceOnUse">
<stop stop-color="#00193D"/>
<stop offset="1" stop-color="#0043A3"/>
</linearGradient>
</defs>
</svg>
