<svg width="23" height="23" viewBox="0 0 23 23" fill="none" xmlns="http://www.w3.org/2000/svg">
<path d="M4.09629 4.26279C4.09629 4.26279 8.72821 1.9482 11.0437 0.789538C11.4651 0.581786 11.9318 0.482535 12.4013 0.500788C13.1035 0.543871 13.9385 1.22312 13.9385 1.22312L22.3334 9.61887V18.5921H18.4256V22.4999H9.30662L1.05662 14.2499C0.611124 13.7915 0.333374 13.1453 0.333374 12.5128C0.333374 12.2204 0.498374 11.763 0.623041 11.4999L4.09629 4.26279ZM4.71871 4.8852V15.69C4.72054 16.1877 4.73796 16.6286 5.17521 17.0723L9.68704 21.5832H17.509V17.6755L4.71871 4.8852ZM15.7691 4.2637C14.945 3.44237 14.1109 2.63204 13.2575 1.84095C12.9806 1.5962 12.7377 1.41195 12.2766 1.41745C11.9375 1.43029 11.4791 1.5962 11.4791 1.5962L6.14596 4.26279L15.7691 4.2637Z" fill="#0175C2"/>
</svg>
