<svg width="18" height="23" viewBox="0 0 18 23" fill="none" xmlns="http://www.w3.org/2000/svg">
<path d="M8.21716 0.5H11.8142V17.1522C9.96891 17.5023 8.61407 17.6426 7.14282 17.6426C2.75108 17.6426 0.462158 15.6571 0.462158 11.8492C0.462158 8.18075 2.89132 5.79925 6.65241 5.79925C7.23632 5.79925 7.67999 5.84508 8.21716 5.98533V0.5ZM8.21716 8.88108C7.82615 8.749 7.4152 8.68573 7.00257 8.69408C5.18024 8.69408 4.12974 9.81517 4.12974 11.7787C4.12974 13.6945 5.13441 14.745 6.97966 14.745C7.37657 14.745 7.70382 14.7221 8.21716 14.6515V8.88108ZM17.5378 6.055V14.3948C17.5378 17.2677 17.3279 18.6463 16.6972 19.8371C16.1133 20.982 15.3424 21.7062 13.7538 22.5L10.4135 20.9114C12.0021 20.1643 12.773 19.5089 13.2634 18.5052C13.7777 17.4776 13.9408 16.2859 13.9408 13.1564V6.05408L17.5378 6.055ZM13.9408 0.51925H17.5378V4.20975H13.9408V0.51925Z" fill="#065E3C"/>
</svg>
