<svg width="22" height="23" viewBox="0 0 22 23" fill="none" xmlns="http://www.w3.org/2000/svg">
<path d="M21.5838 10.5192L11.9781 0.914318C11.4244 0.361568 10.5279 0.361568 9.97242 0.914318L7.98233 2.90807L10.5123 5.43807C11.1036 5.24098 11.7764 5.3739 12.2439 5.84232C12.7169 6.3144 12.8471 6.99549 12.6454 7.58399L15.0819 10.0223C15.6732 9.8179 16.3533 9.95082 16.8236 10.4211C17.4845 11.0811 17.4845 12.1481 16.8236 12.8081C16.1645 13.4672 15.0993 13.4672 14.4403 12.8081C13.9462 12.3122 13.8224 11.5825 14.0699 10.9784L11.7883 8.70874V14.69C11.9497 14.7688 12.1018 14.8761 12.2357 15.009C12.8892 15.6699 12.8892 16.7351 12.2357 17.3923C11.5766 18.0532 10.5041 18.0532 9.84408 17.3923C9.185 16.7332 9.185 15.6699 9.84408 15.0108C10.0109 14.8458 10.1988 14.7212 10.3987 14.6387V8.59873C10.1997 8.51532 10.01 8.39524 9.84867 8.23115C9.34908 7.73157 9.229 7.00099 9.48567 6.38957L6.99967 3.89165L0.4125 10.4742C-0.1375 11.0288 -0.1375 11.9262 0.4125 12.4808L10.0192 22.0847C10.5728 22.6384 11.4693 22.6384 12.023 22.0847L21.5838 12.5239C22.1384 11.9712 22.1384 11.0737 21.5838 10.5192Z" fill="#F05032"/>
</svg>
