<svg width="23" height="15" viewBox="0 0 23 15" fill="none" xmlns="http://www.w3.org/2000/svg">
<path d="M15.7046 1.54247C15.5992 1.54247 15.5277 1.5553 15.4534 1.57272V1.58463H15.4663C15.5158 1.67997 15.6001 1.74963 15.6624 1.83488C15.7119 1.93297 15.7541 2.03105 15.8036 2.12822L15.8164 2.11447C15.9026 2.05397 15.9448 1.9568 15.9448 1.80922C15.9081 1.76613 15.9026 1.72305 15.8714 1.68088C15.8348 1.61947 15.7559 1.58922 15.7064 1.54063L15.7046 1.54247ZM5.95585 13.637H5.1061C5.08221 12.2865 4.99963 10.9377 4.8586 9.59447H4.85127L3.55877 13.637H2.91252L1.62919 9.59447H1.62002C1.51964 10.9399 1.46003 12.288 1.44127 13.637H0.666687C0.717104 11.8348 0.842687 10.1445 1.04252 8.5678H2.09669L3.32044 12.2931H3.32777L4.56252 8.5678H5.56627C5.7881 10.4149 5.91827 12.1061 5.9586 13.637H5.95585ZM9.6381 9.89697C9.2916 11.7715 8.8351 13.1355 8.27044 13.9853C7.8286 14.6416 7.3446 14.9689 6.81935 14.9689C6.6791 14.9689 6.50769 14.9267 6.30052 14.8424V14.3896C6.40135 14.4051 6.52052 14.4134 6.65435 14.4134C6.90002 14.4134 7.0971 14.3446 7.24744 14.2099C7.42802 14.0449 7.51785 13.8597 7.51785 13.6553C7.51785 13.5132 7.44727 13.2245 7.30702 12.79L6.37752 9.89697H7.21169L7.8781 12.0603C8.02844 12.5516 8.09169 12.8945 8.06602 13.0897C8.43269 12.1144 8.68752 11.0483 8.83144 9.89697H9.6381ZM20.936 13.637H18.5252V8.5678H19.3364V13.0136H20.936V13.637ZM17.8927 13.7607L16.9614 13.3024C17.0439 13.2327 17.1236 13.1575 17.1951 13.0732C17.592 12.6094 17.7891 11.92 17.7891 11.008C17.7891 9.33047 17.1309 8.4908 15.8137 8.4908C15.1684 8.4908 14.6642 8.70347 14.3012 9.12972C13.907 9.59538 13.709 10.281 13.709 11.1876C13.709 12.0786 13.8832 12.7331 14.2352 13.1493C14.556 13.5251 15.0391 13.713 15.6863 13.713C15.9283 13.713 16.1501 13.6828 16.3509 13.6232L17.5654 14.3309L17.8954 13.7607H17.8927ZM14.875 12.6222C14.6688 12.2922 14.5661 11.7605 14.5661 11.0309C14.5661 9.75397 14.9548 9.11505 15.7303 9.11505C16.1364 9.11505 16.4361 9.26813 16.6259 9.57338C16.8312 9.90522 16.9339 10.4314 16.9339 11.1528C16.9339 12.4398 16.5452 13.0851 15.7697 13.0851C15.3618 13.0851 15.0639 12.932 14.8732 12.6268L14.875 12.6222ZM13.3552 12.2326C13.3552 12.6635 13.1975 13.0173 12.8822 13.2923C12.5669 13.5673 12.1461 13.7048 11.6135 13.7048C11.1158 13.7048 10.6382 13.5471 10.1716 13.2327L10.3889 12.7964C10.7904 12.998 11.1524 13.097 11.4797 13.097C11.784 13.097 12.0233 13.0301 12.1974 12.8954C12.2845 12.8298 12.3548 12.7445 12.4026 12.6465C12.4504 12.5485 12.4743 12.4406 12.4724 12.3316C12.4724 12.0291 12.2616 11.7725 11.8784 11.557C11.5228 11.3618 10.8124 10.9548 10.8124 10.9548C10.4255 10.6734 10.233 10.3718 10.233 9.87588C10.233 9.46338 10.3769 9.13338 10.6639 8.8813C10.9526 8.62647 11.3239 8.50088 11.7822 8.50088C12.2515 8.50088 12.6805 8.62555 13.0655 8.87672L12.8703 9.31305C12.5626 9.17791 12.2309 9.10621 11.8949 9.10222C11.6355 9.10222 11.4348 9.16455 11.2954 9.29105C11.2247 9.34962 11.1677 9.42299 11.1285 9.50598C11.0892 9.58897 11.0686 9.67957 11.0681 9.77138C11.0681 10.072 11.2826 10.3305 11.6786 10.5505C12.0389 10.7476 12.7667 11.1647 12.7667 11.1647C13.1636 11.4443 13.3607 11.7422 13.3607 12.2354L13.3552 12.2326ZM21.9554 6.8683C21.4649 6.85547 21.0845 6.90497 20.7664 7.04063C20.6748 7.0773 20.5281 7.0773 20.5153 7.19372C20.5657 7.2423 20.573 7.32205 20.6161 7.38988C20.6894 7.51272 20.8159 7.6768 20.9333 7.76297C21.0616 7.8638 21.1899 7.96097 21.3247 8.04713C21.563 8.1938 21.8334 8.28088 22.0672 8.42847C22.2001 8.51463 22.3358 8.62372 22.4705 8.71538C22.5374 8.76122 22.5805 8.84372 22.6667 8.87305V8.85472C22.6245 8.79972 22.6117 8.71997 22.5704 8.65855C22.509 8.59713 22.4476 8.54213 22.3871 8.48163C22.2071 8.24446 21.9923 8.03585 21.75 7.86288C21.5539 7.72905 21.1249 7.54205 21.0442 7.31747L21.0323 7.30463C21.1661 7.29272 21.3256 7.24413 21.4539 7.20747C21.662 7.15247 21.8527 7.16438 22.0681 7.1103C22.1653 7.08555 22.2634 7.0553 22.3614 7.02413V6.96913C22.2514 6.85913 22.1689 6.70972 22.0553 6.60705C21.738 6.32973 21.3997 6.07749 21.0433 5.85263C20.8508 5.7298 20.6069 5.65097 20.4044 5.54647C20.331 5.5098 20.2082 5.49147 20.166 5.43005C20.056 5.29622 19.9919 5.11838 19.9139 4.95888C19.7339 4.60971 19.5667 4.25412 19.4125 3.8928C19.3025 3.65263 19.2356 3.41338 19.1009 3.19338C18.4684 2.15113 17.7836 1.51955 16.7304 0.901717C16.5039 0.773383 16.2326 0.718383 15.9457 0.65055C15.7926 0.643217 15.6395 0.632217 15.4874 0.6258C15.3865 0.582717 15.2894 0.4663 15.2032 0.410383C14.8549 0.190383 13.9529 -0.286283 13.6962 0.344383C13.5312 0.742217 13.9409 1.13455 14.083 1.33622C14.1884 1.47647 14.3214 1.63688 14.3947 1.79455C14.4378 1.90088 14.4497 2.00997 14.4928 2.12088C14.5899 2.39038 14.6825 2.69105 14.8109 2.94313C14.8778 3.07147 14.9511 3.20622 15.0373 3.32172C15.0868 3.38863 15.1711 3.4198 15.1904 3.5298C15.1042 3.65447 15.0987 3.83597 15.0492 3.98813C14.8292 4.68205 14.9154 5.54005 15.227 6.05063C15.3251 6.2028 15.5589 6.54013 15.8714 6.41088C16.1464 6.30088 16.0859 5.95255 16.1648 5.64547C16.1831 5.57213 16.1712 5.52355 16.2088 5.47405V5.4878C16.2949 5.66013 16.3811 5.82422 16.4599 5.99655C16.6488 6.29722 16.9788 6.60888 17.2547 6.81697C17.4014 6.92697 17.5178 7.11763 17.7011 7.18547V7.16713H17.6874C17.6479 7.11397 17.5957 7.0883 17.5462 7.04522C17.43 6.93144 17.3227 6.80885 17.2254 6.67855C16.9671 6.32565 16.7381 5.95224 16.5406 5.56205C16.4398 5.36955 16.3554 5.16238 16.2748 4.97263C16.2381 4.8993 16.2381 4.7893 16.1767 4.75263C16.085 4.88647 15.9503 5.00288 15.8834 5.16788C15.7669 5.43188 15.755 5.75638 15.711 6.09372C15.6863 6.10013 15.6982 6.09372 15.6863 6.10655C15.4901 6.05888 15.4232 5.85538 15.3499 5.68488C15.1665 5.24947 15.1363 4.55005 15.2949 4.04863C15.3379 3.9203 15.5213 3.51513 15.4479 3.3923C15.4094 3.27588 15.2884 3.20897 15.2215 3.11455C15.1354 2.99166 15.0617 2.86055 15.0015 2.72313C14.8549 2.3803 14.7815 2.0008 14.622 1.65797C14.5487 1.49938 14.4204 1.33347 14.3159 1.18772C14.1994 1.02272 14.0711 0.9063 13.9785 0.71105C13.9483 0.644133 13.9052 0.533217 13.9538 0.459884C13.9666 0.410384 13.9923 0.391134 14.0399 0.377384C14.1206 0.311384 14.347 0.39755 14.4268 0.434217C14.6532 0.525883 14.8439 0.61205 15.0336 0.740383C15.1198 0.800883 15.2124 0.9173 15.3224 0.94755H15.4507C15.6469 0.990634 15.8678 0.960384 16.0511 1.01447C16.3765 1.11897 16.6699 1.27113 16.9329 1.43613C17.7436 1.95397 18.4029 2.67689 18.8442 3.53163C18.9175 3.6728 18.9496 3.80205 19.0165 3.94872C19.1449 4.25122 19.3034 4.55647 19.4336 4.84888C19.5619 5.13763 19.6857 5.43188 19.8699 5.67113C19.9616 5.79947 20.3301 5.86638 20.4951 5.9333C20.617 5.9883 20.8068 6.03872 20.9168 6.10563C21.1276 6.23397 21.3329 6.38063 21.5309 6.5218C21.6318 6.59147 21.937 6.74455 21.9554 6.8683Z" fill="#4479A1"/>
</svg>
