<svg width="22" height="23" viewBox="0 0 22 23" fill="none" xmlns="http://www.w3.org/2000/svg">
<path d="M21.9295 13.9959C21.9169 13.9575 21.8996 13.9208 21.8779 13.8867C21.7504 13.6455 21.4408 13.5734 20.9544 13.674C19.4389 13.9866 18.852 13.7942 18.6393 13.6565C19.8694 11.7789 20.8805 9.51129 21.4269 7.3959C21.6757 6.43276 22.1586 4.16584 21.539 3.0586C21.4994 2.98281 21.4531 2.91072 21.4006 2.84318C20.2187 1.33288 18.484 0.522735 16.3841 0.50046C15.0139 0.485976 13.8445 0.817718 13.5277 0.93991C13.3707 0.910623 13.213 0.885681 13.0548 0.86511C12.6579 0.793252 12.2559 0.754071 11.8526 0.74796C10.769 0.731093 9.83249 0.990143 9.05699 1.51851C8.27113 1.22417 4.66725 0.0105931 2.43691 1.59074C1.19125 2.47322 0.616227 4.05053 0.727694 6.27894C0.765186 7.02878 1.19235 9.33511 1.86647 11.5439C2.28795 12.9249 2.72694 14.0207 3.18042 14.8274C3.68734 15.7388 4.21249 16.2879 4.75186 16.4678C5.16198 16.6045 5.79017 16.5999 6.45512 15.8005C7.18955 14.9173 7.91289 14.1269 8.23767 13.7776C8.63651 13.9934 9.06854 14.1098 9.51184 14.1233C9.51191 14.1246 9.51204 14.1258 9.5122 14.1271C9.43501 14.219 9.35947 14.3124 9.2856 14.407C8.97494 14.8014 8.91032 14.8834 7.91042 15.0893C7.62607 15.148 6.87055 15.3037 6.85955 15.8332C6.85726 15.9454 6.88971 16.0448 6.94379 16.1327C7.15179 16.5206 7.78859 16.6916 7.87421 16.7131C9.0975 17.0188 10.1699 16.7974 10.9647 16.0909C10.9491 18.136 11.0357 20.1402 11.2813 20.7544C11.484 21.2612 11.9796 22.5002 13.5447 22.5C13.7743 22.5 14.0272 22.4733 14.3052 22.4137C15.9386 22.0635 16.6479 21.3416 16.9223 19.75C17.06 18.9519 17.2904 17.1143 17.4162 15.9906C17.4317 15.9261 17.4489 15.8799 17.4684 15.8657C17.4691 15.8653 17.5323 15.8225 17.86 15.8939C17.8734 15.8968 17.887 15.8988 17.9006 15.9001L18.1334 15.9205L18.147 15.9215C18.9233 15.9567 19.8991 15.7907 20.4673 15.5266C21.0574 15.2527 22.1225 14.5803 21.9295 13.9959ZM2.50676 11.3868C1.82522 9.15398 1.42702 6.90878 1.39549 6.27922C1.29594 4.28877 1.77783 2.90323 2.82759 2.16091C4.51124 0.970526 7.26408 1.66518 8.42659 2.04174C8.42366 2.04468 8.42054 2.04733 8.41761 2.05036C6.56246 3.92403 6.60646 7.12503 6.61104 7.32073C6.61086 7.39618 6.61709 7.50306 6.62589 7.65009C6.65779 8.18845 6.71719 9.19046 6.55852 10.3253C6.41103 11.3798 6.73608 12.412 7.45025 13.1571C7.52414 13.2342 7.60132 13.3066 7.68107 13.3747C7.36317 13.7151 6.67237 14.4679 5.93711 15.3525C5.41672 15.9781 5.05739 15.8582 4.93923 15.8188C4.57999 15.699 4.19398 15.2806 3.8043 14.6067C3.36467 13.8376 2.92109 12.7443 2.50676 11.3868ZM8.01336 16.05C7.85652 16.0107 7.71352 15.9462 7.61718 15.8875C7.69867 15.8514 7.83479 15.8049 8.0602 15.7584C9.23656 15.5163 9.41824 15.3453 9.81498 14.8415C9.90591 14.726 10.0089 14.5952 10.1517 14.4358C10.1824 14.4014 10.2054 14.3608 10.2192 14.3168C10.3758 14.1781 10.4689 14.2161 10.6197 14.2786C10.7627 14.3378 10.9019 14.5169 10.9584 14.7142C10.9851 14.8073 11.0152 14.9842 10.917 15.1216C10.0881 16.2819 8.88053 16.2669 8.01336 16.05ZM9.93286 12.3943L9.88474 12.5236C9.76282 12.8504 9.64943 13.1543 9.57912 13.443C8.96734 13.441 8.37205 13.1797 7.91949 12.7074C7.34392 12.1069 7.08249 11.2716 7.2022 10.4154C7.36977 9.21649 7.30789 8.1725 7.27462 7.61168C7.27004 7.53313 7.26591 7.46438 7.26344 7.41011C7.53449 7.16985 8.79051 6.49693 9.68609 6.70208C10.0948 6.79576 10.3439 7.07397 10.4474 7.55274C10.9833 10.0312 10.5183 11.0642 10.1447 11.8944C10.0677 12.0654 9.99501 12.227 9.93286 12.3943ZM16.6829 16.5858C16.6674 16.7478 16.6501 16.9304 16.6263 17.132L16.4924 17.5338C16.4818 17.5656 16.4762 17.5989 16.4758 17.6325C16.4703 18.0676 16.4263 18.2273 16.3703 18.4294C16.3122 18.6395 16.2463 18.8777 16.2059 19.3987C16.1051 20.6952 15.4009 21.4399 13.9901 21.7422C12.6009 22.0402 12.3545 21.2868 12.1374 20.6223C12.1151 20.5526 12.0916 20.4834 12.0669 20.4146C11.8694 19.8776 11.8917 19.1203 11.9226 18.0724C11.9377 17.558 11.8998 16.3296 11.6199 15.6467C11.6239 15.378 11.6296 15.1051 11.6373 14.8292C11.6382 14.7943 11.6335 14.7594 11.6233 14.726C11.6144 14.6616 11.601 14.5979 11.583 14.5354C11.4707 14.1428 11.1969 13.8143 10.8683 13.6782C10.7378 13.6241 10.4982 13.5249 10.2103 13.5985C10.2718 13.3455 10.3782 13.06 10.4936 12.7507L10.5421 12.6205C10.5966 12.4739 10.6649 12.322 10.7373 12.1611C11.1283 11.2925 11.6637 10.1029 11.0825 7.41533C10.8649 6.40874 10.138 5.91723 9.03618 6.03135C8.37554 6.09973 7.77127 6.3663 7.46978 6.51911C7.40933 6.54975 7.34949 6.58156 7.29029 6.61453C7.37444 5.60033 7.69234 3.70494 8.88135 2.50576C8.96968 2.41676 9.06247 2.33232 9.15938 2.25276C9.20749 2.24338 9.25284 2.22319 9.29202 2.19373C9.98172 1.67068 10.8453 1.41401 11.8605 1.4306C12.2355 1.43674 12.5954 1.46168 12.9369 1.50485C14.7143 1.82972 15.9104 2.83108 16.6364 3.68899C17.3829 4.5711 17.787 5.45953 17.9484 5.93877C16.7354 5.81538 15.9103 6.055 15.492 6.65285C14.5821 7.95351 15.9897 10.478 16.6663 11.6912C16.7904 11.9136 16.8975 12.1057 16.9312 12.1874C17.1514 12.7214 17.4367 13.0778 17.645 13.338C17.7088 13.4178 17.7707 13.4951 17.8178 13.5626C17.4504 13.6685 16.7904 13.9132 16.8505 15.1365C16.8392 15.2798 16.8117 15.5462 16.774 15.8834C16.7318 16.0738 16.7097 16.3054 16.6829 16.5858ZM17.4992 15.0998C17.4621 14.3375 17.7459 14.2578 18.0462 14.1735C18.0877 14.1621 18.129 14.1497 18.1699 14.1362C18.2087 14.1706 18.2498 14.2021 18.293 14.2307C18.8157 14.5758 19.7434 14.6169 21.0492 14.3539C20.8644 14.516 20.5735 14.72 20.1753 14.9049C19.7997 15.0793 19.1709 15.2101 18.5736 15.2382C17.9139 15.269 17.5782 15.1642 17.4992 15.0998ZM18.0213 6.60115C18.0158 6.92272 17.9716 7.21458 17.9246 7.51938C17.8742 7.84718 17.822 8.18616 17.8088 8.59756C17.7958 8.99796 17.8458 9.41422 17.8942 9.81682C17.9919 10.6299 18.0922 11.4671 17.704 12.2931C17.6396 12.1789 17.5821 12.0608 17.532 11.9396C17.4837 11.8227 17.379 11.6348 17.234 11.3748C16.6697 10.3627 15.3481 7.99265 16.0247 7.02557C16.3725 6.52809 17.2537 6.50664 18.0213 6.60115ZM18.2306 13.0304C18.2047 12.9974 18.1787 12.9646 18.1524 12.9319L18.1199 12.8912C18.7856 11.7917 18.6554 10.7039 18.5395 9.73927C18.492 9.34345 18.447 8.96963 18.4584 8.61855C18.4702 8.24629 18.5195 7.92711 18.567 7.61838C18.6256 7.23796 18.6851 6.84443 18.6687 6.38042C18.681 6.33174 18.6859 6.27427 18.6795 6.20607C18.6376 5.76103 18.1296 4.42957 17.0942 3.22415C16.5373 2.57579 15.7288 1.85172 14.6294 1.35461C15.1107 1.25689 15.7595 1.16807 16.4851 1.1842C18.3656 1.226 19.8535 1.92991 20.9073 3.2764C20.9297 3.30563 20.9501 3.33632 20.9684 3.36825C21.6313 4.61088 20.7152 9.12043 18.2306 13.0304ZM10.1487 7.42386C10.1258 7.58831 9.86558 7.81115 9.57939 7.81115C9.55459 7.81117 9.52981 7.80945 9.50524 7.80602C9.33354 7.78219 9.16011 7.67402 9.04149 7.51672C8.99951 7.46126 8.93122 7.35355 8.94479 7.25602C8.94983 7.21926 8.96871 7.16573 9.02958 7.11962C9.13793 7.03767 9.35206 7.00723 9.58838 7.04014C9.87832 7.08057 10.1774 7.21779 10.1487 7.42386ZM17.4184 7.04674C17.4285 7.11934 17.3734 7.23099 17.278 7.33109C17.2154 7.39682 17.0837 7.51085 16.9041 7.53569C16.8813 7.53886 16.8584 7.54045 16.8354 7.54046C16.5663 7.54046 16.3391 7.32559 16.3214 7.19974C16.2994 7.03794 16.5635 6.91502 16.8357 6.87707C17.108 6.83912 17.3959 6.88513 17.4184 7.04674Z" fill="#336791"/>
</svg>
