<svg width="22" height="15" viewBox="0 0 22 15" fill="none" xmlns="http://www.w3.org/2000/svg">
<path d="M0.67925 14.2513H8.34258C8.34258 14.2513 6.87775 7.56786 11.7278 4.86186L11.8507 4.80136C13.0295 4.21745 16.3487 2.57295 21.6608 6.50086C21.835 6.35511 22 6.2387 22 6.2387C22 6.2387 16.9556 1.20436 11.3392 1.7672C8.51675 2.01928 5.04442 4.58961 3.00667 7.98495C0.969833 11.3803 0.67925 14.2513 0.67925 14.2513ZM8.74958 13.5335C8.68526 13.1291 8.64638 12.721 8.63317 12.3116L9.68092 12.6893C9.73867 13.1458 9.82667 13.572 9.91375 13.9506L8.74958 13.5335ZM1.6005 9.57628L0.484917 9.16836C0.300667 9.58545 0.0971667 10.0704 0 10.3325L1.11558 10.7395C1.24117 10.4104 1.44558 9.9347 1.6005 9.57628ZM8.77892 9.84761L9.5645 10.4682C9.603 10.0896 9.67083 9.71195 9.768 9.33336L9.0695 8.78061C8.94392 9.13903 8.85592 9.49836 8.77892 9.84761ZM10.6508 7.42211L10.1851 6.72361C10.3602 6.50086 10.5637 6.27811 10.7864 6.0737L11.2228 6.7337C11.0136 6.94713 10.8223 7.17738 10.6508 7.42211ZM3.84083 4.6382L4.53017 5.23953C4.29733 5.48245 4.07367 5.74461 3.87017 6.00586L3.12308 5.36603C3.34675 5.12311 3.58875 4.88111 3.84083 4.6382ZM12.8233 5.57961L12.6005 4.91045C12.8434 4.8032 13.1239 4.69686 13.4539 4.5997L13.6675 5.23953C13.3782 5.33223 13.096 5.44589 12.8233 5.57961ZM15.6851 4.97828L15.7236 4.36686C16.0343 4.38611 16.3542 4.42553 16.6842 4.49336L16.6458 5.0947C16.3297 5.02706 16.0082 4.9881 15.6851 4.97828ZM8.19683 2.35936L7.7605 1.68928C7.51758 1.81578 7.2655 1.95145 7.00333 2.10636L7.44975 2.78561C7.70183 2.6307 7.94475 2.48495 8.19683 2.35936ZM16.6458 2.31078L16.6842 1.66086C16.5972 1.61228 16.3542 1.49586 15.7437 1.32078L15.7043 1.96153C16.0243 2.06786 16.335 2.18428 16.6458 2.31078ZM12.1348 1.34003H12.232L12.0377 0.748779C11.737 0.748779 11.4272 0.768029 11.1063 0.806529L11.2906 1.37945C11.5711 1.35168 11.8529 1.33852 12.1348 1.34003Z" fill="#CC0000"/>
</svg>
