<svg width="22" height="23" viewBox="0 0 22 23" fill="none" xmlns="http://www.w3.org/2000/svg">
<path d="M18.4763 0.576061C21.2566 1.05731 22.0449 2.95756 21.9863 4.94856L22 4.92014L20.7488 21.3175L4.4825 22.4321H4.49717C3.14692 22.3753 0.1375 22.2516 0 18.0441L1.50792 15.2941L4.092 21.3312L4.55308 22.4056L7.12433 14.0236L7.09683 14.03L7.1115 14.0025L15.5953 16.7121L14.3156 11.7337L13.4081 8.15873L21.4931 7.63714L20.9293 7.16964L15.125 2.43781L18.4791 0.566895L18.4763 0.576061ZM4.7025 5.15023C7.96675 1.91164 12.1798 -0.0023554 13.7977 1.63023C15.4128 3.25914 13.7014 7.22648 10.4307 10.4632C7.16467 13.7009 3.003 15.7194 1.38875 14.0905C-0.230083 12.4616 1.43 8.39156 4.69975 5.15298L4.7025 5.15023Z" fill="#CC342D"/>
</svg>
