<svg width="23" height="23" viewBox="0 0 23 23" fill="none" xmlns="http://www.w3.org/2000/svg">
<path d="M11.3334 0.5C17.4081 0.5 22.3334 5.42525 22.3334 11.5C22.3334 17.5748 17.4081 22.5 11.3334 22.5C5.25862 22.5 0.333374 17.5748 0.333374 11.5C0.333374 5.42525 5.25862 0.5 11.3334 0.5ZM9.14712 15.1648C9.30754 15.7561 9.29012 16.3088 9.12512 16.8075L9.06554 16.9725C9.04354 17.0284 9.01787 17.0825 8.99404 17.1338C8.86571 17.3997 8.69521 17.6472 8.48529 17.8763C7.84546 18.5721 6.95262 18.8361 6.56946 18.6143C6.15696 18.3741 6.36229 17.3905 7.10479 16.6068C7.90321 15.7652 9.04812 15.2235 9.04812 15.2235V15.2208L9.14712 15.1648ZM18.2322 5.20892C17.7354 3.25367 14.495 2.61108 11.4287 3.701C9.60546 4.34908 7.63004 5.3675 6.21012 6.69575C4.52071 8.27333 4.25212 9.64833 4.36304 10.2231C4.75446 12.2498 7.53196 13.5753 8.67412 14.5589V14.5644C8.33771 14.7294 5.87279 15.966 5.29529 17.2457C4.67654 18.5932 5.39154 19.5566 5.85904 19.6794C7.30279 20.0791 8.78779 19.3494 9.58529 18.1678C10.3553 17.0119 10.2875 15.5269 9.95562 14.7982C10.4103 14.6744 10.9456 14.6194 11.6331 14.7028C13.559 14.9228 13.944 16.1328 13.8606 16.6278C13.7781 17.1219 13.3812 17.4107 13.2428 17.4932C13.1053 17.5766 13.064 17.6032 13.0769 17.6591C13.0906 17.7416 13.1603 17.7416 13.2694 17.7278C13.4206 17.7003 14.274 17.3153 14.3153 16.3794C14.3565 15.1969 13.2281 13.8778 11.2215 13.9044C10.3965 13.9191 9.87312 13.9878 9.50279 14.1391C9.47529 14.0978 9.44687 14.0703 9.40654 14.0428C8.16904 12.7091 5.87279 11.7741 5.96904 10.0003C5.99654 9.35408 6.23029 7.65 10.369 5.5875C13.7653 3.89533 16.475 4.36375 16.9425 5.395C17.6144 6.86533 15.4978 9.6025 11.964 10.0003C10.6165 10.1516 9.91529 9.63 9.73562 9.43658C9.54404 9.23033 9.51654 9.21658 9.44779 9.25875C9.33779 9.31375 9.40654 9.4925 9.44779 9.6025C9.55779 9.8775 9.98404 10.3587 10.7275 10.6062C11.3728 10.8125 12.955 10.9353 14.8525 10.1938C16.9828 9.36967 18.6465 7.0725 18.1653 5.1475L18.2322 5.20892Z" fill="#CC6699"/>
</svg>
