<svg width="22" height="23" viewBox="0 0 22 23" fill="none" xmlns="http://www.w3.org/2000/svg">
<path d="M6.88233 0.5C6.61925 0.5 6.35708 0.5 6.094 0.501833C5.87308 0.503667 5.65125 0.504583 5.43033 0.511C5.30933 0.51375 5.18925 0.51925 5.06825 0.52475C4.70533 0.538865 4.34371 0.576528 3.98567 0.6375C3.50849 0.721875 3.046 0.874702 2.6125 1.09125C1.7423 1.53391 1.0347 2.24087 0.59125 3.11067C0.366667 3.55067 0.224583 4.00167 0.1375 4.48567C0.05225 4.96233 0.0256667 5.44817 0.0128333 5.93033C0.00689132 6.15151 0.00322446 6.37275 0.00183333 6.594C0 6.85708 0 7.11925 0 7.38233V15.6177C0 15.8808 0 16.1448 0.00183333 16.4078C0.00366667 16.6278 0.00641667 16.8488 0.0128333 17.0697C0.0256667 17.5518 0.05225 18.0386 0.1375 18.5143C0.224583 18.9983 0.366667 19.4493 0.59125 19.8893C1.03418 20.7595 1.74192 21.4666 2.6125 21.9088C3.0525 22.1324 3.50167 22.2754 3.98567 22.3625C4.46233 22.4478 4.94817 22.4762 5.43033 22.489C5.65125 22.4954 5.87308 22.4972 6.094 22.4982C6.35708 22.5 6.61925 22.5 6.88233 22.5H15.1177C15.3808 22.5 15.6429 22.5 15.906 22.4982C16.1269 22.4972 16.3488 22.4954 16.5697 22.489C17.0543 22.4832 17.5379 22.4409 18.0162 22.3625C18.4939 22.2803 18.9567 22.1274 19.3893 21.9088C20.259 21.466 20.966 20.759 21.4088 19.8893C21.6333 19.4493 21.7754 18.9983 21.8625 18.5143C21.9478 18.0377 21.9762 17.5518 21.989 17.0697C21.9954 16.8488 21.9972 16.6287 21.9982 16.4078C22 16.1448 22 15.8808 22 15.6177V7.38233C22 7.11925 22 6.85708 21.9982 6.594C21.9975 6.37275 21.9944 6.15152 21.989 5.93033C21.9832 5.44628 21.9409 4.96336 21.8625 4.48567C21.7804 4.00733 21.6275 3.54391 21.4088 3.11067C20.9658 2.24111 20.2589 1.53417 19.3893 1.09125C18.9567 0.872594 18.4939 0.719663 18.0162 0.6375C17.5379 0.558948 17.0543 0.516661 16.5697 0.511C16.3491 0.505667 16.1285 0.502612 15.9078 0.501833C15.6448 0.5 15.3808 0.5 15.1177 0.5H6.88233ZM12.4144 3.62583C16.1856 5.89 18.414 10.191 17.501 13.8293C17.479 13.9145 17.4552 13.9952 17.4313 14.0786L17.4332 14.0795C19.3233 16.406 18.8082 18.8993 18.5662 18.4291C17.5835 16.5169 15.7557 16.9918 14.8188 17.473C14.7341 17.5233 14.6482 17.5716 14.5613 17.6178L14.5429 17.6288L14.5411 17.6307C12.6023 18.6601 9.99717 18.7353 7.38008 17.6105C5.24914 16.6871 3.44702 15.1413 2.21008 13.1757C2.805 13.6157 3.44758 14.0025 4.13233 14.3233C6.89975 15.6195 9.67908 15.5251 11.6462 14.3215C8.84675 12.1692 6.50925 9.36417 4.71717 7.09175C4.3765 6.6943 4.06842 6.27004 3.79592 5.82308C5.94092 7.78658 9.33075 10.2506 10.5472 10.9344C7.96583 8.20733 5.69067 4.84775 5.797 4.955C9.86333 9.0525 13.6143 11.368 13.6143 11.368C13.7555 11.4459 13.8618 11.5092 13.9443 11.5633C14.0223 11.3662 14.091 11.1627 14.1497 10.9509C14.7987 8.57858 14.0672 5.86525 12.4144 3.62492V3.62583Z" fill="#F05138"/>
</svg>
