<svg width="22" height="23" viewBox="0 0 22 23" fill="none" xmlns="http://www.w3.org/2000/svg">
<path d="M1.03125 0.5C0.460167 0.5 0 0.960167 0 1.53125V21.4688C0 22.0398 0.460167 22.5 1.03125 22.5H20.9688C21.5398 22.5 22 22.0398 22 21.4688V1.53125C22 0.960167 21.5398 0.5 20.9688 0.5H1.03125ZM16.9473 9.4375C17.5083 9.4375 18.0052 9.47142 18.4387 9.53925C18.8477 9.60052 19.249 9.705 19.6359 9.85092V12.1041C19.4502 11.9756 19.2529 11.8649 19.0465 11.7732C18.8337 11.6774 18.614 11.5977 18.3893 11.5348C17.9635 11.4162 17.524 11.3546 17.0821 11.3515C16.8071 11.3515 16.5568 11.3772 16.3313 11.4303C16.1304 11.4733 15.9375 11.5482 15.7603 11.6522C15.6044 11.7475 15.4852 11.8621 15.4 11.995C15.3143 12.129 15.2696 12.2851 15.2717 12.4442C15.2717 12.6238 15.3203 12.7861 15.4147 12.9291C15.51 13.0721 15.6457 13.2078 15.8208 13.3361C15.9958 13.4644 16.2085 13.5891 16.4587 13.7119C16.709 13.8357 16.9923 13.9631 17.3076 14.0933C17.7384 14.2738 18.1252 14.4663 18.4681 14.6689C18.8109 14.8724 19.1052 15.1025 19.3508 15.3592C19.5965 15.6149 19.7835 15.9073 19.9137 16.2364C20.0438 16.5655 20.1098 16.9478 20.1098 17.385C20.1098 17.9873 19.9953 18.4942 19.7679 18.903C19.5458 19.3062 19.227 19.648 18.8403 19.8976C18.4233 20.1619 17.9613 20.3472 17.4772 20.4439C16.9583 20.5539 16.4111 20.6089 15.8363 20.6089C15.2707 20.6114 14.706 20.5611 14.1497 20.4586C13.6683 20.3753 13.2015 20.2231 12.7637 20.0067V17.5958C13.5921 18.3009 14.6431 18.6905 15.7309 18.6958C16.0362 18.6958 16.3029 18.6683 16.5303 18.6133C16.7585 18.5583 16.9482 18.4813 17.1013 18.3842C17.2535 18.2852 17.3672 18.1697 17.4433 18.0358C17.5273 17.88 17.5656 17.7036 17.5536 17.5269C17.5416 17.3502 17.4798 17.1806 17.3754 17.0376C17.2392 16.8574 17.0726 16.7023 16.8832 16.5793C16.6482 16.4235 16.4008 16.2874 16.1434 16.1723C15.8384 16.033 15.5306 15.8997 15.2203 15.7726C14.3788 15.4215 13.7518 14.9916 13.3384 14.4847C12.9259 13.9777 12.7188 13.3645 12.7188 12.6468C12.7188 12.0839 12.8315 11.6008 13.057 11.1966C13.2825 10.7923 13.5887 10.4596 13.9773 10.1983C14.3884 9.92714 14.8448 9.73185 15.3248 9.62175C15.8565 9.4964 16.4011 9.43455 16.9473 9.4375ZM3.09375 9.60983H11.8598V11.5953H8.71383V20.4375H6.22325V11.5953H3.09375V9.60983Z" fill="#3178C6"/>
</svg>
