<svg width="23" height="17" viewBox="0 0 23 17" fill="none" xmlns="http://www.w3.org/2000/svg">
<path d="M13.4845 7.65494H15.4269C15.4719 7.65494 15.5152 7.6371 15.5471 7.60533C15.5791 7.57355 15.5971 7.53042 15.5974 7.48536V5.75561C15.5974 5.71039 15.5794 5.66702 15.5474 5.63504C15.5155 5.60307 15.4721 5.58511 15.4269 5.58511H13.4845C13.4395 5.58511 13.3963 5.60297 13.3645 5.63478C13.3327 5.66658 13.3149 5.70971 13.3149 5.75469V7.48536C13.3149 7.57886 13.391 7.65494 13.4845 7.65494ZM10.7766 2.67744H12.7181C12.7633 2.67744 12.8067 2.65948 12.8387 2.6275C12.8707 2.59553 12.8886 2.55216 12.8886 2.50694V0.776273C12.8884 0.731212 12.8703 0.68808 12.8384 0.656303C12.8064 0.624526 12.7632 0.606689 12.7181 0.606689H10.7766C10.7316 0.606689 10.6885 0.624556 10.6567 0.656359C10.6249 0.688162 10.607 0.731296 10.607 0.776273V2.50694C10.607 2.60044 10.6822 2.67744 10.7766 2.67744ZM10.7766 5.16619H12.7181C12.7633 5.16595 12.8065 5.14791 12.8384 5.11598C12.8703 5.08406 12.8884 5.04083 12.8886 4.99569V3.26594C12.8884 3.22088 12.8703 3.17775 12.8384 3.14597C12.8064 3.11419 12.7632 3.09636 12.7181 3.09636H10.7766C10.7316 3.09636 10.6885 3.11422 10.6567 3.14603C10.6249 3.17783 10.607 3.22096 10.607 3.26594V4.99569C10.607 5.08919 10.6822 5.16527 10.7766 5.16619ZM8.09079 5.16619H10.0341C10.079 5.16571 10.1219 5.14753 10.1535 5.11561C10.1851 5.08368 10.2028 5.04059 10.2028 4.99569V3.26594C10.2028 3.22096 10.1849 3.17783 10.1531 3.14603C10.1213 3.11422 10.0782 3.09636 10.0332 3.09636H8.0917C8.04673 3.09636 8.00359 3.11422 7.97179 3.14603C7.93999 3.17783 7.92212 3.22096 7.92212 3.26594V4.99569C7.92212 5.08919 7.9982 5.16527 8.0917 5.16619M5.3747 5.16619H7.31712C7.36218 5.16595 7.40531 5.14788 7.43709 5.11593C7.46887 5.08398 7.4867 5.04075 7.4867 4.99569V3.26594C7.4867 3.22096 7.46884 3.17783 7.43703 3.14603C7.40523 3.11422 7.3621 3.09636 7.31712 3.09636H5.3747C5.32964 3.09636 5.28641 3.11419 5.25446 3.14597C5.22252 3.17775 5.20444 3.22088 5.2042 3.26594V4.99569C5.2042 5.08919 5.2812 5.16527 5.3747 5.16619ZM10.7766 7.65494H12.7181C12.7632 7.65494 12.8064 7.6371 12.8384 7.60533C12.8703 7.57355 12.8884 7.53042 12.8886 7.48536V5.75561C12.8886 5.71039 12.8707 5.66702 12.8387 5.63504C12.8067 5.60307 12.7633 5.58511 12.7181 5.58511H10.7766C10.7316 5.58511 10.6885 5.60297 10.6567 5.63478C10.6249 5.66658 10.607 5.70971 10.607 5.75469V7.48536C10.607 7.57886 10.6822 7.65494 10.7766 7.65494ZM8.09079 7.65494H10.0341C10.0789 7.6547 10.1218 7.63672 10.1534 7.60495C10.185 7.57317 10.2028 7.53017 10.2028 7.48536V5.75561C10.2029 5.73334 10.1986 5.71126 10.1902 5.69064C10.1818 5.67002 10.1694 5.65126 10.1538 5.63542C10.1381 5.61959 10.1195 5.607 10.0989 5.59836C10.0784 5.58973 10.0564 5.58523 10.0341 5.58511H8.09079C8.04597 5.58535 8.00307 5.60332 7.97146 5.6351C7.93986 5.66688 7.92212 5.70987 7.92212 5.75469V7.48536C7.92212 7.57886 7.9982 7.65494 8.0917 7.65494M5.3747 7.65494H7.31712C7.3621 7.65494 7.40523 7.63707 7.43703 7.60527C7.46884 7.57347 7.4867 7.53033 7.4867 7.48536V5.75561C7.48682 5.73334 7.48256 5.71126 7.47414 5.69064C7.46573 5.67002 7.45334 5.65126 7.43768 5.63542C7.42202 5.61959 7.40339 5.607 7.38286 5.59836C7.36233 5.58973 7.34031 5.58523 7.31804 5.58511H5.3747C5.32948 5.58511 5.28612 5.60307 5.25414 5.63504C5.22217 5.66702 5.2042 5.71039 5.2042 5.75561V7.48536C5.2042 7.57886 5.2812 7.65494 5.3747 7.65494ZM2.69804 7.65494H4.64137C4.68619 7.6547 4.72909 7.63672 4.76069 7.60495C4.7923 7.57317 4.81004 7.53017 4.81004 7.48536V5.75561C4.81016 5.73334 4.80589 5.71126 4.79748 5.69064C4.78907 5.67002 4.77668 5.65126 4.76101 5.63542C4.74535 5.61959 4.72673 5.607 4.7062 5.59836C4.68567 5.58973 4.66364 5.58523 4.64137 5.58511H2.69804C2.65322 5.58535 2.61032 5.60332 2.57871 5.6351C2.54711 5.66688 2.52937 5.70987 2.52937 5.75469V7.48536C2.52937 7.57886 2.60362 7.65494 2.69804 7.65494ZM22.4495 6.56594C22.3899 6.51919 21.8335 6.09844 20.6583 6.09844C20.3485 6.09936 20.0386 6.12594 19.7325 6.17819C19.5051 4.61986 18.2172 3.85902 18.1595 3.82602L17.8441 3.64361L17.637 3.94336C17.3766 4.34486 17.1878 4.78852 17.076 5.25419C16.8651 6.14336 16.9935 6.97936 17.4454 7.69344C16.9 7.99777 16.0245 8.07202 15.8467 8.07844H1.35512C1.17317 8.07868 0.998723 8.15094 0.869897 8.27942C0.74107 8.4079 0.668346 8.58216 0.667619 8.76411C0.650644 10.0335 0.865614 11.2954 1.30195 12.4876C1.80154 13.7966 2.54404 14.7609 3.51112 15.3513C4.59279 16.014 6.35279 16.3935 8.34654 16.3935C9.24762 16.3963 10.146 16.3147 11.0324 16.1497C12.2633 15.9236 13.4478 15.4932 14.5368 14.8764C15.4351 14.3567 16.2418 13.6958 16.9293 12.9184C18.077 11.6186 18.7608 10.1712 19.2695 8.88511H19.4721C20.7298 8.88511 21.5025 8.38186 21.9288 7.96019C22.212 7.69161 22.433 7.36436 22.5769 7.00136L22.6667 6.73736L22.4495 6.56594Z" fill="#2496ED"/>
</svg>
