<svg width="15" height="23" viewBox="0 0 15 23" fill="none" xmlns="http://www.w3.org/2000/svg">
<path d="M14.8103 15.6938C14.8103 19.1331 12.1272 22.5009 7.71255 22.5009C2.90097 22.5009 0.523132 19.1001 0.523132 14.9018C0.523132 10.1259 4.0908 3.0291 7.85647 0.558685C7.91387 0.521769 7.9805 0.501739 8.04874 0.500883C8.11699 0.500027 8.1841 0.51838 8.24241 0.553845C8.30072 0.58931 8.34789 0.640459 8.37852 0.70145C8.40915 0.762441 8.42201 0.830816 8.41563 0.898768C8.20439 3.01181 8.7551 5.1308 9.96847 6.8736C10.447 7.60235 10.9695 8.22843 11.5845 9.0296C12.4462 10.1544 13.0851 10.7768 14.0082 12.5514L14.022 12.5771C14.541 13.5338 14.812 14.6053 14.8103 15.6938Z" fill="#4B275F"/>
</svg>
