<svg width="16" height="23" viewBox="0 0 16 23" fill="none" xmlns="http://www.w3.org/2000/svg">
<path d="M11.8644 8.73258H7.65869V0.5H11.8644C14.134 0.5 15.9802 2.34617 15.9802 4.61583C15.9802 6.8855 14.134 8.73258 11.8644 8.73258ZM9.00711 7.38417H11.8644C13.3906 7.38417 14.6318 6.14208 14.6318 4.61675C14.6318 3.09142 13.3897 1.84933 11.8644 1.84933H9.00711V7.38417ZM9.00711 8.73258H4.80236C2.53269 8.73258 0.686525 6.88642 0.686525 4.61675C0.686525 2.34708 2.53269 0.5 4.80236 0.5H9.00803V8.73258H9.00711ZM4.80236 1.84842C3.27611 1.84842 2.03494 3.0905 2.03494 4.61583C2.03494 6.14117 3.27611 7.38417 4.80236 7.38417H7.65961V1.84842H4.80236ZM9.00711 15.6158H4.80236C2.53269 15.6158 0.686525 13.7697 0.686525 11.5C0.686525 9.23033 2.53269 7.38417 4.80236 7.38417H9.00803V15.6158H9.00711ZM4.80236 8.73258C3.27611 8.73258 2.03494 9.97467 2.03494 11.5C2.03494 13.0253 3.27702 14.2674 4.80236 14.2674H7.65961V8.73258H4.80236ZM4.82436 22.5C2.54277 22.5 0.685608 20.6538 0.685608 18.3842C0.685608 16.1145 2.53177 14.2683 4.80144 14.2683H9.00711V18.3393C9.00711 20.6337 7.13069 22.5 4.82436 22.5ZM4.80236 15.6158C4.06869 15.6168 3.36535 15.9087 2.84657 16.4275C2.32779 16.9462 2.03591 17.6496 2.03494 18.3833C2.03494 19.9095 3.28619 21.1507 4.82527 21.1507C6.38819 21.1507 7.66052 19.8893 7.66052 18.3383V15.6158H4.80236ZM11.8644 15.6158H11.7745C9.50486 15.6158 7.65869 13.7697 7.65869 11.5C7.65869 9.23033 9.50486 7.38417 11.7745 7.38417H11.8644C14.134 7.38417 15.9802 9.23033 15.9802 11.5C15.9802 13.7697 14.134 15.6158 11.8644 15.6158ZM11.7754 8.73258C10.2492 8.73258 9.00803 9.97467 9.00803 11.5C9.00803 13.0253 10.2501 14.2674 11.7754 14.2674H11.8653C13.3915 14.2674 14.6327 13.0253 14.6327 11.5C14.6327 9.97467 13.3897 8.73258 11.8644 8.73258H11.7754Z" fill="#F24E1E"/>
</svg>
