<svg width="22" height="9" viewBox="0 0 22 9" fill="none" xmlns="http://www.w3.org/2000/svg">
<path d="M1.66012 2.87835C1.61703 2.87835 1.60695 2.85726 1.62803 2.82426L1.85353 2.53552C1.87462 2.50343 1.92778 2.48235 1.97087 2.48235H5.7952C5.83737 2.48235 5.84837 2.51443 5.82728 2.54652L5.64487 2.82426C5.62378 2.85726 5.5697 2.88843 5.53762 2.88843L1.66012 2.87835ZM0.0431175 3.86376C3.41895e-05 3.86376 -0.0109658 3.84268 0.0110342 3.8106L0.235618 3.52093C0.256701 3.48885 0.310784 3.46776 0.353868 3.46776H5.23787C5.28095 3.46776 5.30203 3.49985 5.29103 3.53193L5.20578 3.7886C5.19478 3.83168 5.15262 3.85276 5.10953 3.85276L0.0431175 3.86376ZM2.63545 4.84918C2.59237 4.84918 2.58137 4.8171 2.60337 4.78502L2.75278 4.51735C2.77387 4.48527 2.81695 4.45318 2.86003 4.45318H5.00228C5.04537 4.45318 5.06645 4.48527 5.06645 4.52835L5.04537 4.78502C5.04537 4.8281 5.00228 4.86018 4.9702 4.86018L2.63545 4.84918ZM13.7537 2.68585C13.079 2.85726 12.618 2.9856 11.9543 3.15701C11.793 3.19918 11.7829 3.21018 11.6426 3.04977C11.4831 2.86735 11.3649 2.75001 11.1403 2.64276C10.4647 2.31093 9.81112 2.40718 9.20153 2.80318C8.47278 3.27435 8.09787 3.97102 8.10887 4.83818C8.11895 5.69527 8.70837 6.40202 9.55445 6.52027C10.2832 6.61652 10.8928 6.35985 11.3759 5.81443C11.4721 5.69527 11.5574 5.56693 11.6646 5.4166H9.59753C9.37295 5.4166 9.31887 5.27726 9.39403 5.09576C9.53337 4.76393 9.79003 4.2066 9.94037 3.92793C9.96332 3.87631 10.0009 3.83255 10.0485 3.80208C10.0961 3.77161 10.1515 3.75577 10.208 3.75652H14.1066C14.0855 4.04618 14.0855 4.33493 14.0425 4.6246C13.9315 5.3872 13.6294 6.10932 13.1643 6.72376C12.3934 7.74126 11.386 8.37377 10.1118 8.54427C9.0622 8.6836 8.08687 8.4801 7.2307 7.83843C6.43778 7.23802 5.9877 6.4451 5.87037 5.45968C5.73103 4.29185 6.07387 3.24226 6.78062 2.32102C7.54145 1.32552 8.54795 0.693015 9.77995 0.469348C10.7865 0.286015 11.7508 0.405181 12.618 0.992765C13.1863 1.3686 13.5924 1.88193 13.861 2.50343C13.9251 2.59968 13.882 2.65377 13.7537 2.68677M17.2994 8.60935C16.324 8.58735 15.4349 8.30868 14.685 7.6661C14.0612 7.14038 13.6501 6.40564 13.5282 5.59902C13.3357 4.38902 13.6675 3.31743 14.3963 2.3641C15.1782 1.3356 16.1205 0.800265 17.3956 0.576598C18.4883 0.384098 19.5168 0.489515 20.4481 1.12201C21.2942 1.69951 21.8195 2.48235 21.9588 3.50993C22.1403 4.95643 21.7232 6.13435 20.7268 7.14177C20.02 7.85952 19.152 8.30868 18.1555 8.51218C17.8668 8.56718 17.578 8.57635 17.2994 8.60935ZM19.8477 4.28268C19.8376 4.14243 19.8376 4.03518 19.8165 3.92793C19.624 2.86735 18.6487 2.26876 17.6312 2.50343C16.6348 2.72801 15.9922 3.36051 15.7566 4.36701C15.5641 5.20301 15.9711 6.0491 16.742 6.39285C17.3315 6.64951 17.92 6.61652 18.4883 6.32868C19.3344 5.88868 19.7945 5.20302 19.8486 4.28177L19.8477 4.28268Z" fill="#00ADD8"/>
</svg>
