<svg width="14" height="23" viewBox="0 0 14 23" fill="none" xmlns="http://www.w3.org/2000/svg">
<path d="M4.90081 2.458C4.7787 2.33285 4.63279 2.2334 4.47166 2.1655C4.31054 2.0976 4.13745 2.06262 3.9626 2.06262C3.78776 2.06262 3.61467 2.0976 3.45355 2.1655C3.29242 2.2334 3.14651 2.33285 3.0244 2.458H3.01798C2.76876 2.71326 2.63011 3.05642 2.63206 3.41317C2.63206 3.789 2.77965 4.12542 3.0189 4.36558L3.02531 4.372C3.2609 4.614 3.58998 4.7625 3.9594 4.7625C4.32973 4.7625 4.66156 4.614 4.90081 4.372L4.90356 4.36558C5.14281 4.12542 5.28948 3.789 5.28948 3.41317C5.28948 3.03917 5.14373 2.70092 4.90356 2.458H4.90081ZM3.9594 20.9371C4.32973 20.9371 4.66156 20.784 4.90081 20.5438L4.90356 20.5365C5.14281 20.2973 5.28948 19.9581 5.28948 19.5868C5.28948 19.211 5.14373 18.8737 4.90356 18.6298H4.90081C4.7787 18.5038 4.63235 18.4037 4.47057 18.3356C4.30878 18.2676 4.13491 18.233 3.9594 18.2338C3.78481 18.2328 3.61183 18.2673 3.45107 18.3354C3.2903 18.4035 3.14511 18.5037 3.0244 18.6298H3.01798C2.77965 18.8737 2.63115 19.211 2.63115 19.5868C2.63115 19.959 2.77873 20.2973 3.01798 20.5365L3.0244 20.5438C3.2609 20.784 3.58998 20.9371 3.9594 20.9371ZM11.1919 16.8469C11.521 16.7589 11.818 16.5444 12.0004 16.2199L12.0251 16.1723C12.182 15.871 12.2193 15.5217 12.1296 15.1942C12.086 15.0231 12.0089 14.8624 11.9027 14.7214C11.7965 14.5804 11.6633 14.4619 11.5109 14.3728L11.4916 14.36C11.1911 14.1908 10.8359 14.1473 10.5035 14.239C10.1735 14.3224 9.87648 14.5461 9.6959 14.8678C9.51256 15.1877 9.47498 15.5553 9.56206 15.8936C9.65281 16.2263 9.86456 16.527 10.1808 16.7149H10.1826C10.4998 16.901 10.8582 16.934 11.1919 16.8469ZM5.32065 10.1168C5.14331 9.93532 4.9316 9.79105 4.69787 9.69236C4.46415 9.59368 4.2131 9.54256 3.9594 9.542C3.42773 9.542 2.94831 9.76383 2.6009 10.1168C2.2544 10.4697 2.0399 10.9564 2.0399 11.4982C2.0399 12.0399 2.25348 12.5285 2.6009 12.886C2.77836 13.0666 2.99 13.21 3.22348 13.3079C3.45696 13.4058 3.7076 13.4562 3.96077 13.4562C4.21395 13.4562 4.46458 13.4058 4.69806 13.3079C4.93154 13.21 5.14319 13.0666 5.32065 12.886C5.66806 12.5285 5.88165 12.0399 5.88165 11.4982C5.88165 10.9564 5.66806 10.4697 5.32065 10.1168ZM4.55523 7.81592C5.32798 7.94517 6.0219 8.32192 6.55173 8.86458H6.5554C6.63973 8.94983 6.72223 9.04425 6.79831 9.13867L8.12381 8.35858C7.94913 7.82199 7.93417 7.24619 8.08073 6.70125C8.17612 6.33364 8.34311 5.98846 8.57214 5.6855C8.80116 5.38255 9.08772 5.12776 9.4154 4.93575L9.43831 4.92108C9.76013 4.73416 10.1159 4.61309 10.4849 4.56494C10.854 4.51678 11.2289 4.5425 11.5879 4.64058C12.2937 4.83308 12.9308 5.3015 13.3277 5.99908V6.00092C13.7228 6.69483 13.8026 7.49142 13.6146 8.20825C13.5197 8.57627 13.3528 8.92188 13.1238 9.22519C12.8947 9.5285 12.608 9.78352 12.28 9.97558L12.0985 10.0837H12.0801C11.4656 10.3807 10.7645 10.4461 10.1056 10.268C9.56882 10.1205 9.08657 9.81977 8.71781 9.40267L7.39415 10.18C7.70809 11.0317 7.70809 11.9674 7.39415 12.8191L8.71781 13.5946C9.0964 13.1637 9.57856 12.8713 10.1056 12.7292C10.4689 12.6285 10.8488 12.6025 11.2223 12.6528C11.5959 12.703 11.9554 12.8285 12.2791 13.0217L12.3231 13.0428V13.0446C12.963 13.4382 13.4255 14.0644 13.6137 14.7917C13.8096 15.5359 13.7066 16.3271 13.3268 16.9963L13.303 17.0449L13.3002 17.0403C12.9217 17.6841 12.3082 18.156 11.5888 18.3567C11.2253 18.4547 10.8459 18.4794 10.4728 18.4293C10.0997 18.3793 9.74023 18.2555 9.4154 18.0652V18.0597C8.75389 17.6711 8.27381 17.0357 8.08073 16.2933C7.93466 15.7492 7.94962 15.1744 8.12381 14.6387L6.79831 13.8613C6.72195 13.9552 6.64087 14.0452 6.5554 14.1308L6.55173 14.1354C6.01454 14.6872 5.31496 15.0527 4.55523 15.1786V16.736C5.09916 16.8532 5.59652 17.128 5.98523 17.5262L5.98706 17.5298C6.50498 18.0542 6.8249 18.7838 6.8249 19.5859C6.8249 20.3862 6.50406 21.1112 5.98706 21.6383L5.98523 21.6466C5.72115 21.9162 5.406 22.1306 5.05818 22.2771C4.71035 22.4236 4.33682 22.4994 3.9594 22.5C3.58265 22.499 3.20986 22.4232 2.8627 22.2768C2.51554 22.1305 2.20095 21.9166 1.93723 21.6475H1.9354V21.6393C1.39656 21.0921 1.0949 20.3548 1.09573 19.5868C1.09573 18.7847 1.41656 18.0542 1.9354 17.5308V17.5271H1.93723C2.32577 17.1297 2.82231 16.855 3.3654 16.7369V15.1795C2.60607 15.054 1.90697 14.6884 1.37073 14.1363L1.36523 14.1318C0.675215 13.4286 0.289064 12.4824 0.28998 11.4972C0.28998 10.4688 0.704313 9.53925 1.36523 8.86458H1.37073C1.90703 8.3116 2.60582 7.94422 3.3654 7.81592V6.26492C2.8228 6.14448 2.32674 5.86939 1.93723 5.47292H1.9354V5.46925C1.39617 4.92087 1.09453 4.18224 1.09573 3.41317C1.09573 2.61475 1.41656 1.88325 1.9354 1.35708L1.93723 1.35525C2.20022 1.08504 2.51461 0.870171 2.86189 0.723293C3.20918 0.576414 3.58233 0.500494 3.9594 0.5C4.74865 0.5 5.46365 0.825417 5.98523 1.35433V1.35617H5.98706C6.50498 1.88233 6.8249 2.61383 6.8249 3.41225C6.8249 4.21525 6.50406 4.94033 5.98706 5.46833L5.98523 5.47292C5.59506 5.86948 5.09838 6.14457 4.55523 6.26492V7.81592ZM11.9995 6.781L11.9885 6.76358C11.8129 6.46305 11.5266 6.24324 11.191 6.15125C11.0221 6.10487 10.8455 6.09281 10.6719 6.1158C10.4982 6.13879 10.3309 6.19635 10.1799 6.28508H10.1817C9.86365 6.46842 9.65006 6.77 9.56115 7.10642C9.47406 7.441 9.51165 7.81042 9.69498 8.13217L9.7014 8.14042C9.88473 8.4585 10.1771 8.67117 10.5026 8.75733C10.8298 8.85175 11.1946 8.81142 11.5091 8.62533L11.5265 8.61708C11.8248 8.43501 12.0408 8.14413 12.1287 7.80583C12.2212 7.46045 12.1748 7.09261 11.9995 6.781Z" fill="white"/>
</svg>
