<svg width="23" height="23" viewBox="0 0 23 23" fill="none" xmlns="http://www.w3.org/2000/svg">
<path d="M13.7292 0.665L14.5542 0.848333L15.2234 1.08667L15.7642 1.36167L16.1767 1.655L16.4884 1.96667L16.7175 2.27833L16.8642 2.58083L16.9559 2.85583L16.9925 3.09417L17.0109 3.2775L17.0017 3.39667V8.29167L16.9559 8.86917L16.8367 9.37333L16.6442 9.795L16.4059 10.1433L16.1309 10.4275L15.8284 10.6567L15.5075 10.8308L15.1867 10.9592L14.8842 11.0508L14.6092 11.115L14.3709 11.1517L14.1784 11.17H8.70586L8.07336 11.2158L7.53253 11.3442L7.07419 11.5458L6.69836 11.7933L6.39586 12.0867L6.14836 12.4075L5.96503 12.7375L5.82753 13.0767L5.73586 13.3975L5.67169 13.6908L5.63503 13.9383L5.61669 14.1308V16.9358H3.57253L3.38003 16.9083L3.12336 16.8442L2.83003 16.7342L2.50919 16.5692L2.17919 16.3308L1.84919 16.0008L1.52836 15.5792L1.23503 15.0383L0.978361 14.3692L0.785861 13.5625L0.657528 12.6L0.611694 11.4725L0.666694 10.3542L0.813361 9.40083L1.03336 8.60333L1.32669 7.9525L1.65669 7.43L2.02336 7.02667L2.40836 6.72417L2.79336 6.50417L3.16003 6.3575L3.49003 6.26583L3.78336 6.22L4.00336 6.21083H4.15003L4.20503 6.22H11.685V5.45917H6.33169L6.32253 2.93833L6.30419 2.59917L6.35003 2.2875L6.45086 2.00333L6.60669 1.74667L6.83586 1.50833L7.12003 1.2975L7.46836 1.11417L7.87169 0.949167L8.33919 0.811667L8.87086 0.701667L9.45753 0.61L10.1084 0.555L10.8142 0.518333L11.5842 0.5L12.7484 0.545833L13.7292 0.665ZM7.95419 2.48L7.74336 2.7825L7.67003 3.15833L7.74336 3.53417L7.95419 3.84583L8.25669 4.0475L8.63253 4.13L9.00836 4.0475L9.31086 3.84583L9.52169 3.53417L9.59503 3.15833L9.52169 2.7825L9.31086 2.48L9.00836 2.27833L8.63253 2.19583L8.25669 2.27833L7.95419 2.48ZM19.9534 6.10083L20.21 6.15583L20.5034 6.26583L20.8242 6.43083L21.1542 6.67833L21.4842 6.99917L21.805 7.43L22.0984 7.97083L22.355 8.64L22.5475 9.44667L22.6759 10.4L22.7217 11.5275L22.6667 12.655L22.52 13.6083L22.3 14.3967L22.0067 15.0475L21.6767 15.57L21.31 15.9825L20.925 16.285L20.54 16.505L20.1734 16.6517L19.8434 16.7342L19.55 16.78L19.33 16.7983L19.1834 16.7892H11.6484V17.5408H17.0017L17.0109 20.0708L17.0292 20.4008L16.9834 20.7125L16.8825 20.9967L16.7267 21.2625L16.4975 21.4917L16.2134 21.7117L15.865 21.895L15.4617 22.0508L14.9942 22.1883L14.4625 22.3075L13.8759 22.39L13.225 22.4542L12.5192 22.4908L11.7492 22.5L10.585 22.4633L9.60419 22.335L8.77919 22.1517L8.11003 21.9225L7.56919 21.6475L7.15669 21.345L6.84503 21.0333L6.61586 20.7217L6.46919 20.4192L6.37753 20.1442L6.34086 19.915L6.32253 19.7317L6.33169 19.6125V14.7175L6.37753 14.1308L6.49669 13.6358L6.68919 13.2142L6.92753 12.8658L7.20253 12.5725L7.50503 12.3525L7.82586 12.1692L8.14669 12.0408L8.44919 11.9492L8.72419 11.8942L8.96253 11.8575L9.15503 11.8392L9.27419 11.83H14.6275L15.26 11.7842L15.8009 11.6558L16.2592 11.4633L16.635 11.2067L16.9375 10.9133L17.185 10.5925L17.3684 10.2625L17.5059 9.9325L17.5975 9.61167L17.6617 9.31833L17.6984 9.06167L17.7167 8.86917V6.06417H19.6325L19.7609 6.07333L19.9534 6.10083ZM14.0225 19.1633L13.8117 19.4658L13.7384 19.8417L13.8117 20.2175L14.0225 20.52L14.325 20.7308L14.7009 20.8042L15.0767 20.7308L15.3792 20.52L15.59 20.2175L15.6634 19.8417L15.59 19.4658L15.3792 19.1633L15.0767 18.9525L14.7009 18.8792L14.325 18.9525L14.0225 19.1633Z" fill="#3776AB"/>
</svg>
