<svg width="22" height="23" viewBox="0 0 22 23" fill="none" xmlns="http://www.w3.org/2000/svg">
<path d="M19.1702 12.5514L19.2802 11.731C20.1483 12.259 20.4334 12.5762 20.5214 12.7128C20.3747 12.7412 20.0062 12.7549 19.1702 12.5514ZM17.1774 19.8738C17.1743 19.8959 17.1728 19.9183 17.1728 19.9407C17.1728 20.0177 16.983 20.3119 16.1424 20.6447C15.7133 20.8086 15.2727 20.941 14.8243 21.0407C13.5364 21.3386 11.9569 21.5027 10.3757 21.5027C6.14802 21.5027 3.58136 20.4173 3.58136 19.9407C3.58132 19.9183 3.57979 19.8959 3.57677 19.8738L1.65911 5.63517C1.78286 5.70667 1.91577 5.77633 2.05511 5.84325C2.09361 5.86158 2.13394 5.87808 2.17244 5.8955C2.29527 5.95233 2.42177 6.00733 2.55469 6.0605L2.71877 6.12375C2.85994 6.17692 3.00661 6.22825 3.15694 6.27775C3.19636 6.28967 3.23394 6.30433 3.27611 6.31717C3.46586 6.37675 3.66386 6.43358 3.86827 6.48858L4.02961 6.52892C4.19002 6.56925 4.35319 6.60867 4.51911 6.64533C4.77571 6.702 5.03334 6.75396 5.29186 6.80117L5.40277 6.82225C5.63377 6.8635 5.86844 6.90017 6.10677 6.93408C6.17186 6.94417 6.23877 6.95242 6.30477 6.96158C6.48811 6.98633 6.67144 7.01017 6.85844 7.03217L7.07844 7.05692C7.30302 7.08075 7.52761 7.10275 7.75677 7.12108L7.83102 7.12933C8.08311 7.1495 8.33702 7.166 8.59186 7.18067L8.80544 7.19167C8.99794 7.20083 9.19227 7.20817 9.38569 7.21458C10.2397 7.24273 11.0945 7.23478 11.9478 7.19075L12.1604 7.18067C12.4153 7.166 12.6692 7.1495 12.9213 7.12933L12.9946 7.122C13.2238 7.10367 13.4502 7.08075 13.6748 7.056L13.8929 7.03217C14.0809 7.01017 14.2669 6.98633 14.4512 6.96158C14.5154 6.95242 14.5804 6.94417 14.6446 6.93408C14.8839 6.90017 15.1204 6.86258 15.3523 6.82225L15.454 6.80392C15.6511 6.76725 15.8454 6.72875 16.0352 6.68933L16.2295 6.64625C16.4 6.60867 16.5669 6.56833 16.73 6.52708L16.8822 6.48858C17.0884 6.43358 17.2892 6.37675 17.4817 6.31533C17.5184 6.30433 17.5523 6.2915 17.5871 6.2805C17.739 6.23136 17.8897 6.17848 18.039 6.12192C18.0922 6.10267 18.1435 6.08158 18.1949 6.06142C18.3324 6.00642 18.4634 5.95142 18.589 5.89183C18.6239 5.87625 18.6614 5.86067 18.6954 5.84417C18.8356 5.77725 18.9704 5.70667 19.095 5.63517L18.2004 12.2764C15.9197 11.5614 12.8791 10.1754 11.4986 9.52642C11.4974 9.26253 11.3918 9.00984 11.205 8.82351C11.0181 8.63717 10.7652 8.53232 10.5013 8.53183C9.95127 8.53183 9.50394 8.98008 9.50394 9.52917C9.50394 10.0792 9.95127 10.5274 10.5013 10.5274C10.6809 10.5274 10.8478 10.4761 10.9935 10.3918C12.5702 11.1361 15.7089 12.5615 18.0656 13.2793L17.1774 19.8738ZM10.3757 1.49733C15.5796 1.49733 19.2454 3.10975 19.3132 4.00533L19.3004 4.10892C19.2912 4.13917 19.2719 4.17033 19.2564 4.2015C19.2426 4.22717 19.2325 4.25375 19.2133 4.28125C19.1913 4.3115 19.1601 4.34358 19.1308 4.37475C19.1051 4.40225 19.084 4.42975 19.0538 4.45725C19.0189 4.48933 18.974 4.52142 18.9319 4.5535C18.8952 4.581 18.864 4.6085 18.8228 4.63692C18.7742 4.66992 18.7164 4.702 18.6605 4.735C18.6147 4.7625 18.5734 4.79 18.523 4.8175C18.4607 4.8505 18.3883 4.88442 18.3195 4.91833C18.2654 4.944 18.215 4.97058 18.1573 4.99625C18.0803 5.03108 17.995 5.06408 17.9116 5.098C17.8493 5.12275 17.7924 5.1475 17.7255 5.17317C17.6366 5.20617 17.5376 5.23917 17.4414 5.27125C17.3726 5.29508 17.3057 5.31983 17.2324 5.34367C17.1306 5.37575 17.0188 5.40692 16.9115 5.43808C16.8336 5.46008 16.7603 5.48392 16.6796 5.505C16.5659 5.53617 16.4431 5.56458 16.323 5.59483C16.2378 5.615 16.1571 5.637 16.0682 5.65717C15.9408 5.6865 15.8051 5.71308 15.6713 5.74058C15.5814 5.75892 15.4962 5.77817 15.4027 5.79558C15.2606 5.82308 15.1094 5.84783 14.9609 5.87258C14.8692 5.88908 14.7794 5.90558 14.684 5.92025C14.5319 5.94408 14.3705 5.96425 14.2119 5.98625C14.1111 5.99908 14.0167 6.01375 13.914 6.02658C13.7481 6.04767 13.573 6.06417 13.4007 6.08158C13.2999 6.09258 13.2009 6.1045 13.0964 6.11458C12.924 6.12925 12.7425 6.14117 12.5647 6.154C12.4529 6.16225 12.3447 6.17233 12.231 6.17967C12.0413 6.19067 11.8442 6.198 11.6489 6.20533C11.5389 6.20992 11.4344 6.21633 11.3244 6.22C10.6924 6.23837 10.0599 6.23837 9.42786 6.22C9.31786 6.21633 9.21336 6.20992 9.10519 6.20533C8.90902 6.198 8.71102 6.19067 8.52127 6.17967C8.40944 6.17233 8.30311 6.16133 8.19127 6.15492C8.01252 6.14117 7.83011 6.12925 7.65594 6.11458C7.55511 6.10542 7.45886 6.09258 7.35894 6.0825C7.18477 6.06417 7.00694 6.04767 6.83827 6.0275L6.54952 5.98717C6.38819 5.96517 6.22411 5.945 6.06827 5.92025C5.97661 5.9065 5.89227 5.89 5.80244 5.87442C5.64936 5.84875 5.49536 5.824 5.34961 5.79558C5.26161 5.77908 5.18186 5.76075 5.09661 5.74425C4.95819 5.71492 4.81702 5.68742 4.68411 5.65717C4.60161 5.63883 4.52552 5.61775 4.44577 5.5985C4.31927 5.56733 4.19186 5.53708 4.07269 5.505C3.99752 5.48483 3.92877 5.46283 3.85727 5.44175C3.7443 5.41059 3.63184 5.37758 3.51994 5.34275C3.45119 5.32075 3.39069 5.29783 3.32469 5.27583C3.22386 5.24192 3.12027 5.20708 3.02677 5.17225C2.96536 5.14933 2.91219 5.1255 2.85444 5.10167C2.76644 5.06683 2.67569 5.032 2.59594 4.99625C2.54094 4.9715 2.49511 4.94675 2.44377 4.92292C2.37044 4.88717 2.29527 4.85233 2.23019 4.81658C2.18252 4.79092 2.14402 4.76617 2.10002 4.73958C2.04227 4.70475 1.98086 4.67083 1.93044 4.636C1.89102 4.60942 1.86169 4.58283 1.82686 4.55717C1.78286 4.52325 1.73702 4.49025 1.69944 4.45633C1.67011 4.42975 1.64994 4.40408 1.62611 4.37658C1.59586 4.3445 1.56286 4.31242 1.54086 4.28125C1.52252 4.25375 1.51244 4.22808 1.49869 4.20242C1.48219 4.17033 1.46294 4.14008 1.45377 4.10892L1.44002 4.00533C1.50969 3.10975 5.17452 1.49733 10.3757 1.49733ZM21.5425 12.611C21.4344 12.0353 20.7725 11.4276 19.425 10.6603L20.3078 4.097C20.3108 4.07483 20.3124 4.05247 20.3124 4.03008C20.3133 1.94925 15.0764 0.5 10.3766 0.5C5.67777 0.5 0.441772 1.94925 0.441772 4.03008C0.441929 4.05216 0.443459 4.0742 0.446356 4.09608L2.58402 19.9792C2.64911 21.8143 7.38369 22.5 10.3757 22.5C12.0303 22.5 13.6894 22.3277 15.0489 22.0133C15.597 21.8868 16.0874 21.7383 16.5082 21.5732C17.5899 21.1452 18.1481 20.608 18.1701 19.9792L19.0364 13.546C19.5469 13.6661 19.9677 13.7266 20.3096 13.7266C20.8046 13.7266 21.1364 13.601 21.3491 13.348C21.4346 13.2476 21.4963 13.1291 21.5296 13.0015C21.563 12.8739 21.568 12.7404 21.5425 12.611Z" fill="#569A31"/>
</svg>
