<svg width="20" height="23" viewBox="0 0 20 23" fill="none" xmlns="http://www.w3.org/2000/svg">
<path d="M18.2848 4.99167L11.3393 0.8685C10.9249 0.622833 10.4629 0.5 10 0.5C9.53708 0.5 9.07508 0.622833 8.65983 0.869417L1.71425 4.99167C0.885583 5.48392 0.375 6.39325 0.375 7.37775V15.6232C0.375 16.6068 0.885583 17.517 1.71517 18.0093L8.66075 22.1315C9.07508 22.3772 9.53708 22.5 10 22.5C10.4629 22.5 10.9249 22.3772 11.3393 22.1315L18.2848 18.0093C19.1135 17.517 19.625 16.6077 19.625 15.6232V7.37775C19.625 6.39325 19.1144 5.48392 18.2848 4.99167ZM12.9058 17.8672L12.9178 18.4593C12.9187 18.5308 12.8719 18.6124 12.816 18.6408L12.4649 18.8425C12.409 18.8709 12.3632 18.8361 12.3623 18.7646L12.3558 18.1825C12.0552 18.3072 11.7508 18.3374 11.5565 18.2595C11.5198 18.2448 11.5042 18.1908 11.5189 18.1293L11.6463 17.594C11.6564 17.5518 11.6793 17.5097 11.7096 17.4831C11.7206 17.473 11.7316 17.4648 11.7426 17.4592C11.7628 17.4492 11.782 17.4464 11.7994 17.4538C12.0093 17.5243 12.277 17.4913 12.5346 17.3612C12.8618 17.1952 13.0809 16.8616 13.0773 16.5298C13.0745 16.2291 12.9113 16.1035 12.5153 16.1007C12.0112 16.1017 11.54 16.0027 11.5327 15.2602C11.5262 14.6487 11.8443 14.0126 12.3476 13.6102L12.3412 13.0125C12.3403 12.9392 12.3852 12.8585 12.4429 12.8292L12.7821 12.6128C12.838 12.5844 12.8838 12.6193 12.8848 12.6926L12.8903 13.2912C13.1405 13.1913 13.3587 13.1647 13.5557 13.2105C13.5988 13.2215 13.6172 13.2802 13.5998 13.3489L13.4678 13.8788C13.4577 13.9191 13.4348 13.9594 13.4082 13.9851C13.3972 13.9961 13.3853 14.0043 13.3733 14.0108C13.3559 14.0199 13.3385 14.0227 13.3211 14.019C13.2313 13.9988 13.0168 13.9521 12.6803 14.1226C12.3274 14.3013 12.2037 14.6084 12.2064 14.8358C12.2092 15.108 12.3485 15.1905 12.8307 15.1988C13.4723 15.2098 13.7501 15.4903 13.7565 16.1365C13.7629 16.7681 13.4247 17.4501 12.9058 17.8672ZM16.5478 16.8708C16.5478 16.9257 16.5404 16.9771 16.4946 17.0037L14.7383 18.0707C14.6924 18.0972 14.6558 18.0743 14.6558 18.0193V17.5665C14.6558 17.5115 14.6897 17.4813 14.7355 17.4547L16.4653 16.4198C16.5111 16.3932 16.5478 16.4161 16.5478 16.4711V16.8708ZM17.7541 6.73058L11.1834 10.7887C10.3639 11.2681 9.75983 11.8053 9.75983 12.7934V20.8903C9.75983 21.4816 9.99817 21.8647 10.3648 21.9757C10.2448 21.9967 10.1228 22.0114 10 22.0114C9.615 22.0114 9.23642 21.9069 8.90275 21.7089L1.95717 17.5867C1.27792 17.1833 0.85625 16.4307 0.85625 15.6232V7.37775C0.85625 6.57017 1.27792 5.81758 1.95717 5.41425L8.90275 1.29108C9.2355 1.09308 9.615 0.988583 10 0.988583C10.3841 0.988583 10.7636 1.09308 11.0972 1.29108L18.0428 5.41425C18.6148 5.75433 19.0017 6.34283 19.1098 7.00192C18.8788 6.51058 18.36 6.37675 17.7541 6.73058Z" fill="#4EAA25"/>
</svg>
