<svg width="22" height="19" viewBox="0 0 22 19" fill="none" xmlns="http://www.w3.org/2000/svg">
<path d="M6.56706 10.9484L7.74681 9.78422C7.78338 9.74813 7.81245 9.70517 7.83234 9.6578C7.85224 9.61044 7.86257 9.5596 7.86274 9.50823C7.86291 9.45685 7.85291 9.40595 7.83333 9.35845C7.81375 9.31096 7.78497 9.2678 7.74865 9.23147L6.5689 8.05172L6.01156 8.60264L6.51756 9.10864H4.71815V9.88964H6.52398L6.0134 10.3938L6.56706 10.9484ZM15.5687 10.9851L17.1408 9.81172C17.1892 9.77524 17.2285 9.72802 17.2555 9.67377C17.2826 9.61953 17.2966 9.55975 17.2966 9.49914C17.2966 9.43853 17.2826 9.37874 17.2555 9.3245C17.2285 9.27026 17.1892 9.22303 17.1408 9.18655L15.5678 8.01597L15.0957 8.64114L15.7246 9.10864H14.1534V9.89055H15.7255L15.0966 10.359L15.5687 10.9851ZM9.11631 9.50005C9.11631 10.3296 8.97331 11.1116 8.70473 11.7917C9.44091 11.5174 10.2208 11.3791 11.0065 11.3838C11.804 11.3838 12.6015 11.5195 13.3073 11.7917C13.0289 11.0601 12.8896 10.2829 12.8966 9.50005C12.8966 8.67047 13.0406 7.88947 13.3082 7.20839C11.8938 7.75197 10.1191 7.75197 8.70473 7.20839C8.97331 7.88947 9.11723 8.67047 9.11723 9.50005H9.11631ZM7.19131 13.2914C7.15489 13.2553 7.12599 13.2123 7.10626 13.1649C7.08654 13.1176 7.07638 13.0668 7.07638 13.0155C7.07638 12.9642 7.08654 12.9134 7.10626 12.866C7.12599 12.8187 7.15489 12.7757 7.19131 12.7396C7.90448 12.0301 8.33073 10.8191 8.33073 9.50005C8.33073 8.18097 7.90448 6.97005 7.1904 6.26055C7.15398 6.22442 7.12507 6.18144 7.10535 6.13409C7.08562 6.08673 7.07547 6.03594 7.07547 5.98464C7.07547 5.93334 7.08562 5.88254 7.10535 5.83519C7.12507 5.78783 7.15398 5.74485 7.1904 5.70872C7.26427 5.63511 7.36431 5.59378 7.4686 5.59378C7.57289 5.59378 7.67293 5.63511 7.74681 5.70872C9.27031 7.22122 12.7426 7.22122 14.2671 5.70872C14.3221 5.6544 14.3919 5.61747 14.4678 5.60254C14.5437 5.5876 14.6223 5.59532 14.6938 5.62473C14.7654 5.65415 14.8267 5.70395 14.8701 5.76795C14.9135 5.83194 14.9372 5.9073 14.9381 5.98464C14.9382 6.03601 14.928 6.08688 14.9082 6.13427C14.8884 6.18166 14.8592 6.22459 14.8226 6.26055C14.1094 6.97005 13.6831 8.18097 13.6831 9.50005C13.6831 10.8191 14.1094 12.0301 14.8226 12.7396C14.859 12.7757 14.8879 12.8187 14.9076 12.866C14.9273 12.9134 14.9375 12.9642 14.9375 13.0155C14.9375 13.0668 14.9273 13.1176 14.9076 13.1649C14.8879 13.2123 14.859 13.2553 14.8226 13.2914C14.7487 13.3647 14.6489 13.4059 14.5448 13.4059C14.4407 13.4059 14.3409 13.3647 14.2671 13.2914C12.7436 11.7789 9.27031 11.7789 7.74681 13.2914C7.67293 13.365 7.57289 13.4063 7.4686 13.4063C7.36431 13.4063 7.26519 13.365 7.19131 13.2914ZM21.2154 9.50189C21.2154 9.13797 21.0733 8.79605 20.8139 8.53847C20.5563 8.28224 20.2074 8.13881 19.8441 8.13972C19.493 8.13972 19.1419 8.27264 18.8742 8.53847C18.7471 8.66466 18.6462 8.81475 18.5774 8.9801C18.5086 9.14545 18.4731 9.32278 18.4731 9.50189C18.4731 9.68099 18.5086 9.85833 18.5774 10.0237C18.6462 10.189 18.7471 10.3391 18.8742 10.4653C19.4086 10.997 20.2786 10.997 20.8139 10.4653C21.0733 10.2086 21.2154 9.8658 21.2154 9.5028V9.50189ZM21.3694 11.0181C20.964 11.4208 20.4155 11.6463 19.8441 11.6451C19.2727 11.6463 18.7241 11.4208 18.3187 11.0181C18.1186 10.8195 17.9598 10.5833 17.8514 10.3231C17.743 10.0629 17.6872 9.78378 17.6872 9.50189C17.6872 9.22 17.743 8.9409 17.8514 8.68068C17.9598 8.42046 18.1186 8.18426 18.3187 7.98572C18.7248 7.58402 19.2729 7.3587 19.8441 7.3587C20.4152 7.3587 20.9634 7.58402 21.3694 7.98572C21.5695 8.18426 21.7283 8.42046 21.8367 8.68068C21.9451 8.9409 22.0009 9.22 22.0009 9.50189C22.0009 9.78378 21.9451 10.0629 21.8367 10.3231C21.7283 10.5833 21.5695 10.8195 21.3694 11.0181ZM3.52923 9.51105C3.52875 9.33149 3.49289 9.15378 3.4237 8.98809C3.35451 8.82239 3.25335 8.67195 3.126 8.54536C2.99865 8.41878 2.8476 8.31853 2.68149 8.25034C2.51538 8.18215 2.33746 8.14737 2.1579 8.14797C1.7954 8.14724 1.44742 8.29035 1.19032 8.5459C0.933228 8.80145 0.788018 9.14856 0.786562 9.51105C0.786562 9.87497 0.928646 10.2169 1.18715 10.4745C1.70598 10.9887 2.6089 10.9887 3.12681 10.4745C3.38623 10.2169 3.52923 9.87497 3.52923 9.51105ZM3.68323 11.0272C3.27763 11.4302 2.7287 11.6557 2.15698 11.6542C1.58559 11.6553 1.03708 11.4299 0.631646 11.0272C0.431761 10.8286 0.273132 10.5923 0.164887 10.3321C0.0566414 10.0719 0.000915527 9.79287 0.000915527 9.51105C0.000915527 9.22923 0.0566414 8.95019 0.164887 8.68999C0.273132 8.42979 0.431761 8.19355 0.631646 7.99489C1.03785 7.59313 1.58611 7.36779 2.15744 7.36779C2.72876 7.36779 3.27703 7.59313 3.68323 7.99489C3.88333 8.19343 4.04216 8.42962 4.15054 8.68984C4.25893 8.95006 4.31473 9.22916 4.31473 9.51105C4.31473 9.79294 4.25893 10.072 4.15054 10.3323C4.04216 10.5925 3.88333 10.8287 3.68323 11.0272ZM16.853 15.3356C16.0811 16.1058 15.1647 16.716 14.1563 17.1311C13.148 17.5462 12.0676 17.7581 10.9771 17.7546C9.88676 17.7583 8.80639 17.5466 7.79805 17.1316C6.78971 16.7166 5.87326 16.1066 5.10131 15.3365C4.02423 14.2676 3.43298 12.9898 3.12498 12.1061L2.38248 12.3628C2.71615 13.3226 3.36331 14.715 4.54581 15.8883C5.39072 16.7313 6.3938 17.3991 7.49746 17.8534C8.60112 18.3077 9.78364 18.5395 10.9771 18.5356C12.1706 18.5395 13.3532 18.3077 14.4568 17.8534C15.5605 17.3991 16.5636 16.7313 17.4085 15.8883C18.4063 14.8946 19.1676 13.689 19.636 12.361L18.8916 12.108C18.4629 13.3235 17.7662 14.4269 16.853 15.3365V15.3356ZM3.12315 6.89489L2.38065 6.63822C2.85731 5.27789 3.62548 4.0248 4.54673 3.10997C5.39162 2.26768 6.39449 1.60049 7.49782 1.14667C8.60115 0.692851 9.78322 0.461329 10.9762 0.465387C12.1693 0.461229 13.3514 0.692705 14.4547 1.14653C15.558 1.60036 16.5609 2.2676 17.4057 3.10997C18.3975 4.10924 19.1579 5.31396 19.6332 6.63914L18.8916 6.89489C18.4552 5.68121 17.7581 4.57794 16.8493 3.66272C16.0776 2.89316 15.1616 2.28356 14.1537 1.8689C13.1459 1.45424 12.066 1.24269 10.9762 1.24639C9.88626 1.24257 8.80626 1.45406 7.79824 1.86873C6.79022 2.28339 5.87402 2.89305 5.10223 3.66272C4.2644 4.49597 3.56131 5.64364 3.12315 6.89489Z" fill="#FF9900"/>
</svg>
